<svg width="21" height="21" viewBox="0 0 21 21" fill="none" xmlns="http://www.w3.org/2000/svg">
<path d="M1.04921e-05 10.2857C1.04921e-05 4.60543 4.60544 0 10.2857 0C15.966 0 20.5714 4.60543 20.5714 10.2857C20.5714 15.966 15.966 20.5714 10.2857 20.5714C8.60068 20.5738 6.94108 20.1605 5.45401 19.368L1.36544 20.5311C1.1819 20.5833 0.987775 20.5855 0.803114 20.5375C0.618454 20.4895 0.44996 20.393 0.315046 20.2581C0.180132 20.1232 0.0836923 19.9547 0.0356921 19.77C-0.012308 19.5854 -0.0101267 19.3913 0.0420105 19.2077L1.2043 15.1191C0.411258 13.6316 -0.00240201 11.9714 1.04921e-05 10.2857ZM6.42858 8.35714C6.42858 8.712 6.71658 9 7.07144 9H13.5C13.6705 9 13.834 8.93227 13.9546 8.81171C14.0751 8.69115 14.1429 8.52764 14.1429 8.35714C14.1429 8.18665 14.0751 8.02313 13.9546 7.90257C13.834 7.78202 13.6705 7.71429 13.5 7.71429H7.07144C6.90094 7.71429 6.73743 7.78202 6.61687 7.90257C6.49631 8.02313 6.42858 8.18665 6.42858 8.35714ZM7.07144 11.5714C6.90094 11.5714 6.73743 11.6392 6.61687 11.7597C6.49631 11.8803 6.42858 12.0438 6.42858 12.2143C6.42858 12.3848 6.49631 12.5483 6.61687 12.6689C6.73743 12.7894 6.90094 12.8571 7.07144 12.8571H10.9286C11.0991 12.8571 11.2626 12.7894 11.3832 12.6689C11.5037 12.5483 11.5714 12.3848 11.5714 12.2143C11.5714 12.0438 11.5037 11.8803 11.3832 11.7597C11.2626 11.6392 11.0991 11.5714 10.9286 11.5714H7.07144Z" fill="url(#paint0_linear_111_1271)"/>
<defs>
<linearGradient id="paint0_linear_111_1271" x1="0.734582" y1="3.85714" x2="18.6952" y2="34.4777" gradientUnits="userSpaceOnUse">
<stop stop-color="#0FAFFF"/>
<stop offset="1" stop-color="#CC23D1"/>
</linearGradient>
</defs>
</svg>
