<svg width="24" height="24" viewBox="0 0 24 24" fill="none" xmlns="http://www.w3.org/2000/svg">
<path fill-rule="evenodd" clip-rule="evenodd" d="M12.2549 17.8408L15.0478 15.0479L17.8407 12.255C18.47 11.6048 18.5672 10.6063 18.0751 9.847C17.5988 9.02245 16.7434 8.48893 15.7934 8.42383C14.5123 8.44933 13.0466 8.70677 12.1323 7.79239L8.80142 4.46033C8.20226 3.85317 7.22486 3.84502 6.61567 4.44212L4.44206 6.61209C3.84496 7.22128 3.85311 8.19868 4.46027 8.79784L7.79233 12.1335C8.7067 13.0479 8.44806 14.5136 8.42377 15.7947C8.48927 16.7442 9.02273 17.5991 9.84694 18.0751C10.6062 18.5673 11.6048 18.4701 12.2549 17.8408Z" stroke="#2F3DF6" stroke-width="1.5" stroke-linecap="round" stroke-linejoin="round"/>
<path d="M15.0479 15.048L20.998 20.9981" stroke="#2F3DF6" stroke-width="1.5" stroke-linecap="round"/>
</svg>
