<svg width="24" height="24" viewBox="0 0 24 24" fill="none" xmlns="http://www.w3.org/2000/svg">
<path d="M22.6205 12.2943C22.9777 12.5039 23.4373 12.3842 23.6469 12.0269C23.8565 11.6697 23.7368 11.2101 23.3795 11.0005L23 11.6474L22.6205 12.2943ZM6.85618 2.17562L6.46911 2.81808L6.47664 2.8225L6.85618 2.17562ZM5.54539 2.20552L5.12946 1.58141L5.12946 1.58141L5.54539 2.20552ZM5.01326 3.4038L4.27136 3.51375C4.2787 3.56325 4.29097 3.6119 4.308 3.65895L5.01326 3.4038ZM7.29035 11.9026C7.43127 12.2921 7.86126 12.4936 8.25077 12.3527C8.64028 12.2118 8.8418 11.7818 8.70088 11.3923L7.99562 11.6474L7.29035 11.9026ZM23.3795 12.2943C23.7368 12.0847 23.8565 11.6252 23.6469 11.2679C23.4373 10.9107 22.9777 10.791 22.6205 11.0006L23 11.6475L23.3795 12.2943ZM6.85618 21.1192L6.47662 20.4723L6.46913 20.4768L6.85618 21.1192ZM5.54539 21.0893L5.12946 21.7135H5.12946L5.54539 21.0893ZM5.01326 19.8911L4.308 19.6359C4.29097 19.683 4.2787 19.7316 4.27136 19.7811L5.01326 19.8911ZM8.70088 11.9026C8.8418 11.5131 8.64028 11.0831 8.25077 10.9422C7.86126 10.8013 7.43127 11.0028 7.29035 11.3923L7.99562 11.6475L8.70088 11.9026ZM22.9995 12.3979C23.4137 12.3979 23.7495 12.0621 23.7495 11.6479C23.7495 11.2337 23.4137 10.8979 22.9995 10.8979V11.6479V12.3979ZM7.99512 10.8979C7.5809 10.8979 7.24512 11.2337 7.24512 11.6479C7.24512 12.0621 7.5809 12.3979 7.99512 12.3979V11.6479V10.8979ZM23 11.6474L23.3795 11.0005L7.23571 1.52874L6.85618 2.17562L6.47664 2.8225L22.6205 12.2943L23 11.6474ZM6.85618 2.17562L7.24322 1.53321C6.58868 1.13886 5.76535 1.15764 5.12946 1.58141L5.54539 2.20552L5.96131 2.82962C6.11408 2.72781 6.31188 2.7233 6.46913 2.81804L6.85618 2.17562ZM5.54539 2.20552L5.12946 1.58141C4.49358 2.00519 4.15934 2.75785 4.27136 3.51375L5.01326 3.4038L5.75516 3.29386C5.72825 3.11226 5.80855 2.93143 5.96131 2.82962L5.54539 2.20552ZM5.01326 3.4038L4.308 3.65895L7.29035 11.9026L7.99562 11.6474L8.70088 11.3923L5.71853 3.14865L5.01326 3.4038ZM23 11.6475L22.6205 11.0006L6.47664 20.4724L6.85618 21.1192L7.23571 21.7661L23.3795 12.2943L23 11.6475ZM6.85618 21.1192L6.46913 20.4768C6.31188 20.5716 6.11408 20.5671 5.96131 20.4652L5.54539 21.0893L5.12946 21.7135C5.76535 22.1372 6.58868 22.156 7.24322 21.7617L6.85618 21.1192ZM5.54539 21.0893L5.96131 20.4652C5.80855 20.3634 5.72825 20.1826 5.75516 20.001L5.01326 19.8911L4.27136 19.7811C4.15934 20.537 4.49358 21.2897 5.12946 21.7135L5.54539 21.0893ZM5.01326 19.8911L5.71853 20.1462L8.70088 11.9026L7.99562 11.6475L7.29035 11.3923L4.308 19.6359L5.01326 19.8911ZM22.9995 11.6479V10.8979H7.99512V11.6479V12.3979H22.9995V11.6479Z" fill="#DEE4F2"/>
</svg>
