<svg width="24" height="24" viewBox="0 0 24 24" fill="none" xmlns="http://www.w3.org/2000/svg">
<path d="M18.2199 20.7501H5.77994C5.43316 20.7359 5.09256 20.6535 4.77765 20.5076C4.46274 20.3617 4.17969 20.1551 3.9447 19.8997C3.70971 19.6443 3.52739 19.345 3.40818 19.0191C3.28896 18.6931 3.23519 18.3468 3.24994 18.0001V15.0001C3.24994 14.8012 3.32896 14.6104 3.46961 14.4697C3.61027 14.3291 3.80103 14.2501 3.99994 14.2501C4.19886 14.2501 4.38962 14.3291 4.53027 14.4697C4.67093 14.6104 4.74994 14.8012 4.74994 15.0001V18.0001C4.72412 18.297 4.81359 18.5925 4.99977 18.8252C5.18596 19.0579 5.45459 19.2101 5.74994 19.2501H18.2199C18.5153 19.2101 18.7839 19.0579 18.9701 18.8252C19.1563 18.5925 19.2458 18.297 19.2199 18.0001V15.0001C19.2199 14.8012 19.299 14.6104 19.4396 14.4697C19.5803 14.3291 19.771 14.2501 19.9699 14.2501C20.1689 14.2501 20.3596 14.3291 20.5003 14.4697C20.6409 14.6104 20.7199 14.8012 20.7199 15.0001V18.0001C20.7499 18.6954 20.504 19.3745 20.0358 19.8895C19.5676 20.4045 18.915 20.7138 18.2199 20.7501ZM15.9999 8.75007C15.9014 8.75054 15.8038 8.73132 15.7128 8.69354C15.6217 8.65576 15.5392 8.60018 15.4699 8.53007L11.9999 5.06007L8.52994 8.53007C8.38777 8.66255 8.19972 8.73468 8.00542 8.73125C7.81112 8.72782 7.62573 8.64911 7.48832 8.51169C7.35091 8.37428 7.2722 8.1889 7.26877 7.9946C7.26534 7.80029 7.33746 7.61225 7.46994 7.47007L11.4699 3.47007C11.6106 3.32962 11.8012 3.25073 11.9999 3.25073C12.1987 3.25073 12.3893 3.32962 12.5299 3.47007L16.5299 7.47007C16.6704 7.6107 16.7493 7.80132 16.7493 8.00007C16.7493 8.19882 16.6704 8.38945 16.5299 8.53007C16.4607 8.60018 16.3781 8.65576 16.2871 8.69354C16.1961 8.73132 16.0985 8.75054 15.9999 8.75007Z" fill="#7E3FF2"/>
<path d="M12 15.75C11.8019 15.7474 11.6126 15.6676 11.4725 15.5275C11.3324 15.3874 11.2526 15.1981 11.25 15V4C11.25 3.80109 11.329 3.61032 11.4697 3.46967C11.6103 3.32902 11.8011 3.25 12 3.25C12.1989 3.25 12.3897 3.32902 12.5303 3.46967C12.671 3.61032 12.75 3.80109 12.75 4V15C12.7474 15.1981 12.6676 15.3874 12.5275 15.5275C12.3874 15.6676 12.1981 15.7474 12 15.75Z" fill="#7E3FF2"/>
</svg>
