<svg width="24" height="24" viewBox="0 0 24 24" fill="none" xmlns="http://www.w3.org/2000/svg">
<path d="M6.66673 22.7676H17.3339C19.4133 22.7676 20.4479 21.7129 20.4479 19.6236V10.5032C20.4479 9.20722 20.3073 8.64493 19.5037 7.82122L13.9589 2.18636C13.196 1.40251 12.5729 1.23193 11.438 1.23193H6.66673C4.59759 1.23193 3.55273 2.2965 3.55273 4.38622V19.6236C3.55273 21.7228 4.59759 22.7676 6.66673 22.7676ZM6.74688 21.1506C5.71231 21.1506 5.16973 20.5978 5.16973 19.5936V4.41622C5.16973 3.42193 5.71231 2.84893 6.75716 2.84893H11.2169V8.68522C11.2169 9.95079 11.8597 10.5735 13.1052 10.5735H18.8309V19.5936C18.8309 20.5978 18.2982 21.1506 17.2537 21.1506H6.74688ZM13.286 9.05636C12.8943 9.05636 12.7332 8.89608 12.7332 8.49408V3.16051L18.5189 9.05679L13.286 9.05636ZM15.6967 13.3356H8.07245C7.71116 13.3356 7.45016 13.6069 7.45016 13.9485C7.45016 14.2999 7.71159 14.5712 8.07288 14.5712H15.6967C15.7789 14.5726 15.8605 14.5574 15.9366 14.5265C16.0128 14.4957 16.0819 14.4499 16.14 14.3918C16.1981 14.3337 16.2439 14.2645 16.2748 14.1884C16.3056 14.1122 16.3208 14.0306 16.3194 13.9485C16.3194 13.6069 16.0482 13.3356 15.6967 13.3356ZM15.6967 16.8414H8.07245C7.71116 16.8414 7.45016 17.1225 7.45016 17.4739C7.45016 17.8155 7.71159 18.0769 8.07288 18.0769H15.6967C16.0482 18.0769 16.3194 17.8155 16.3194 17.4739C16.3194 17.1225 16.0482 16.8414 15.6967 16.8414Z" fill="#DEE4F2"/>
</svg>
